<svg width="212" height="80" viewBox="0 0 212 80" fill="none" xmlns="http://www.w3.org/2000/svg">
<g filter="url(#filter0_di_26_2)">
<path d="M44.4717 42.7166C44.3136 44.3779 43.6956 45.6756 42.6176 46.6096C41.5397 47.5365 40.106 48 38.3167 48C37.0663 48 35.9632 47.7077 35.0074 47.123C34.0588 46.5312 33.3259 45.6934 32.8084 44.6096C32.291 43.5258 32.0216 42.2674 32 40.8342V39.3797C32 37.9109 32.2623 36.6168 32.7869 35.4973C33.3115 34.3779 34.0624 33.5152 35.0398 32.9091C36.0243 32.303 37.1597 32 38.446 32C40.1779 32 41.572 32.467 42.6284 33.4011C43.6848 34.3351 44.2992 35.6542 44.4717 37.3583H41.7553C41.6259 36.2389 41.2954 35.4332 40.7636 34.9412C40.239 34.4421 39.4665 34.1925 38.446 34.1925C37.2603 34.1925 36.3477 34.6239 35.7081 35.4866C35.0757 36.3422 34.7523 37.6007 34.7379 39.262V40.6417C34.7379 42.3244 35.0398 43.6078 35.6434 44.492C36.2542 45.3761 37.1453 45.8182 38.3167 45.8182C39.3874 45.8182 40.1923 45.5793 40.7312 45.1016C41.2702 44.6239 41.6116 43.8289 41.7553 42.7166H44.4717Z" fill="#F7F6F3"/>
<path d="M52.6855 41.7861H49.6457V47.7861H46.9186V32.2139H52.4376C54.2485 32.2139 55.6462 32.6168 56.6307 33.4225C57.6152 34.2282 58.1075 35.3939 58.1075 36.9198C58.1075 37.9608 57.8524 38.8342 57.3422 39.5401C56.8391 40.2389 56.1349 40.7772 55.2294 41.1551L58.7543 47.6471V47.7861H55.8331L52.6855 41.7861ZM49.6457 39.615H52.4484C53.3682 39.615 54.0868 39.3868 54.6042 38.9305C55.1216 38.467 55.3803 37.836 55.3803 37.0374C55.3803 36.2032 55.1396 35.5579 54.6581 35.1016C54.1838 34.6453 53.4724 34.41 52.5238 34.3957H49.6457V39.615Z" fill="#F7F6F3"/>
<path d="M65.2973 39.5936L68.9084 32.2139H71.9266L66.6663 42.0535V47.7861H63.9283V42.0535L58.6572 32.2139H61.6862L65.2973 39.5936Z" fill="#F7F6F3"/>
<path d="M76.3569 42V47.7861H73.6297V32.2139H79.6338C81.3872 32.2139 82.7778 32.6667 83.8054 33.5722C84.8402 34.4777 85.3576 35.6756 85.3576 37.1658C85.3576 38.6916 84.851 39.8788 83.8377 40.7273C82.8317 41.5758 81.4196 42 79.6015 42H76.3569ZM76.3569 39.8289H79.6338C80.6039 39.8289 81.3441 39.6043 81.8543 39.1551C82.3646 38.6988 82.6197 38.0428 82.6197 37.1872C82.6197 36.3458 82.361 35.6756 81.8436 35.1765C81.3261 34.6702 80.6147 34.41 79.7092 34.3957H76.3569V39.8289Z" fill="#F7F6F3"/>
<path d="M99.0905 34.3957H94.1966V47.7861H91.491V34.3957H86.6403V32.2139H99.0905V34.3957Z" fill="#F7F6F3"/>
<path d="M113.384 40.4064C113.384 41.9323 113.118 43.2727 112.586 44.4278C112.054 45.5758 111.293 46.4599 110.301 47.0802C109.316 47.6934 108.181 48 106.895 48C105.623 48 104.487 47.6934 103.488 47.0802C102.497 46.4599 101.728 45.5793 101.182 44.4385C100.643 43.2977 100.37 41.9822 100.362 40.492V39.615C100.362 38.0963 100.632 36.7558 101.171 35.5936C101.717 34.4314 102.482 33.5437 103.467 32.9305C104.459 32.3102 105.594 32 106.873 32C108.152 32 109.284 32.3066 110.269 32.9198C111.26 33.5258 112.026 34.4029 112.565 35.5508C113.104 36.6916 113.377 38.0214 113.384 39.5401V40.4064ZM110.657 39.5936C110.657 37.8681 110.326 36.5455 109.665 35.6257C109.011 34.7059 108.08 34.246 106.873 34.246C105.695 34.246 104.771 34.7059 104.103 35.6257C103.442 36.5383 103.104 37.8324 103.09 39.508V40.4064C103.09 42.1176 103.424 43.4403 104.092 44.3743C104.768 45.3084 105.702 45.7754 106.895 45.7754C108.102 45.7754 109.029 45.3191 109.676 44.4064C110.33 43.4938 110.657 42.1604 110.657 40.4064V39.5936Z" fill="#F7F6F3"/>
<path d="M121.393 44.3957L125.381 32.2139H128.378L122.729 47.7861H120.089L114.462 32.2139H117.448L121.393 44.3957Z" fill="#F7F6F3"/>
<path d="M139.33 40.8342H132.884V45.6257H140.418V47.7861H130.156V32.2139H140.343V34.3957H132.884V38.6952H139.33V40.8342Z" fill="#F7F6F3"/>
<path d="M148.406 41.7861H145.366V47.7861H142.639V32.2139H148.158C149.969 32.2139 151.367 32.6168 152.351 33.4225C153.336 34.2282 153.828 35.3939 153.828 36.9198C153.828 37.9608 153.573 38.8342 153.062 39.5401C152.559 40.2389 151.855 40.7772 150.95 41.1551L154.475 47.6471V47.7861H151.553L148.406 41.7861ZM145.366 39.615H148.169C149.089 39.615 149.807 39.3868 150.325 38.9305C150.842 38.467 151.101 37.836 151.101 37.0374C151.101 36.2032 150.86 35.5579 150.378 35.1016C149.904 34.6453 149.193 34.41 148.244 34.3957H145.366V39.615Z" fill="#F7F6F3"/>
<path d="M164.618 43.7754C164.618 43.0909 164.374 42.5633 163.885 42.1925C163.403 41.8217 162.53 41.4474 161.266 41.0695C160.001 40.6916 158.995 40.2709 158.247 39.8075C156.817 38.9162 156.102 37.754 156.102 36.3209C156.102 35.066 156.616 34.0321 157.644 33.2193C158.679 32.4064 160.019 32 161.664 32C162.757 32 163.73 32.1996 164.586 32.5989C165.441 32.9982 166.113 33.5686 166.601 34.3102C167.09 35.0446 167.334 35.861 167.334 36.7594H164.618C164.618 35.9465 164.359 35.3119 163.842 34.8556C163.332 34.3922 162.599 34.1604 161.643 34.1604C160.752 34.1604 160.058 34.3494 159.562 34.7273C159.074 35.1052 158.829 35.6328 158.829 36.3102C158.829 36.8806 159.095 37.3583 159.627 37.7433C160.159 38.1212 161.036 38.492 162.257 38.8556C163.479 39.2121 164.46 39.6221 165.2 40.0856C165.94 40.5419 166.483 41.0695 166.828 41.6684C167.173 42.2602 167.345 42.9554 167.345 43.754C167.345 45.0517 166.842 46.0856 165.836 46.8556C164.837 47.6185 163.479 48 161.761 48C160.626 48 159.58 47.7932 158.625 47.3797C157.676 46.959 156.936 46.3815 156.404 45.6471C155.879 44.9127 155.617 44.057 155.617 43.0802H158.344C158.344 43.9643 158.639 44.6488 159.228 45.1337C159.818 45.6185 160.662 45.861 161.761 45.861C162.71 45.861 163.421 45.672 163.896 45.2941C164.377 44.9091 164.618 44.4029 164.618 43.7754Z" fill="#F7F6F3"/>
<path d="M178.911 40.8342H172.465V45.6257H180V47.7861H169.738V32.2139H179.925V34.3957H172.465V38.6952H178.911V40.8342Z" fill="#F7F6F3"/>
</g>
<defs>
<filter id="filter0_di_26_2" x="0" y="0" width="212" height="80" filterUnits="userSpaceOnUse" color-interpolation-filters="sRGB">
<feFlood flood-opacity="0" result="BackgroundImageFix"/>
<feColorMatrix in="SourceAlpha" type="matrix" values="0 0 0 0 0 0 0 0 0 0 0 0 0 0 0 0 0 0 127 0" result="hardAlpha"/>
<feOffset/>
<feGaussianBlur stdDeviation="16"/>
<feColorMatrix type="matrix" values="0 0 0 0 1 0 0 0 0 1 0 0 0 0 1 0 0 0 0.7 0"/>
<feBlend mode="normal" in2="BackgroundImageFix" result="effect1_dropShadow_26_2"/>
<feBlend mode="normal" in="SourceGraphic" in2="effect1_dropShadow_26_2" result="shape"/>
<feColorMatrix in="SourceAlpha" type="matrix" values="0 0 0 0 0 0 0 0 0 0 0 0 0 0 0 0 0 0 127 0" result="hardAlpha"/>
<feOffset/>
<feGaussianBlur stdDeviation="4"/>
<feComposite in2="hardAlpha" operator="arithmetic" k2="-1" k3="1"/>
<feColorMatrix type="matrix" values="0 0 0 0 1 0 0 0 0 1 0 0 0 0 1 0 0 0 0.5 0"/>
<feBlend mode="normal" in2="shape" result="effect2_innerShadow_26_2"/>
</filter>
</defs>
</svg>
