<svg width="30" height="30" viewBox="0 0 30 30" fill="none" xmlns="http://www.w3.org/2000/svg">
<path fill-rule="evenodd" clip-rule="evenodd" d="M21.5798 0.477465C21.8684 0.948388 21.7205 1.56405 21.2496 1.85258L14.4458 6.02122C13.9749 6.30975 13.3592 6.1619 13.0707 5.69097C12.7822 5.22005 12.93 4.60439 13.4009 4.31586L20.2047 0.147218C20.6756 -0.141314 21.2913 0.00654295 21.5798 0.477465ZM5.77675 2.79019C4.83845 1.80743 3.43853 1.82519 2.62359 2.67873C1.77956 3.56274 1.77098 5.11073 2.73001 6.11519C3.66831 7.09794 5.06823 7.08019 5.88317 6.22664C6.7272 5.34263 6.73578 3.79464 5.77675 2.79019ZM1.17705 1.29761C2.84368 -0.447975 5.56249 -0.330418 7.2233 1.40906C8.86339 3.12684 8.96726 5.89266 7.32971 7.60777C5.66308 9.35335 2.94427 9.23579 1.28346 7.49631C-0.356628 5.77854 -0.460497 3.01272 1.17705 1.29761ZM27.7173 7.17171C27.6811 7.15762 27.6304 7.14528 27.5314 7.19321L16.205 12.6738L13.2327 10.1034C12.0864 9.11206 10.5213 9.19403 9.58133 10.1785C8.53349 11.276 8.45622 13.287 9.51535 14.7026C9.77288 15.0468 10.0223 15.3831 10.2499 15.6921L13.0531 13.5203C13.4897 13.182 14.1179 13.2618 14.4561 13.6984C14.7943 14.135 14.7146 14.7631 14.278 15.1013L10.5866 17.9612L9.38166 18.5713C7.48698 19.5307 5.25701 18.5875 4.50051 16.6256L3.70127 14.5527C3.50258 14.0374 3.75924 13.4586 4.27455 13.2599C4.78986 13.0612 5.36867 13.3179 5.56736 13.8332L6.3666 15.9061C6.72178 16.8272 7.7001 17.181 8.4782 16.787L8.54672 16.7523C8.34769 16.4826 8.13383 16.1946 7.91397 15.9007C6.35662 13.8192 6.31674 10.7016 8.13478 8.79741C9.86073 6.98971 12.6436 6.94977 14.5409 8.59058L16.5181 10.3005L26.6602 5.39289C27.9526 4.76752 29.1276 5.47365 29.6445 6.34824C30.1598 7.21992 30.2175 8.57764 29.0967 9.43955L18.6769 17.4521L13.9651 28.5886C13.5271 29.6238 12.4311 30.1957 11.3283 29.9391C10.1133 29.6565 9.31923 28.4804 9.43802 27.2626L10.0595 20.8915C10.1131 20.3418 10.6021 19.9397 11.1518 19.9933C11.7015 20.0469 12.1036 20.536 12.05 21.0856L11.4286 27.4567C11.4028 27.7212 11.5873 27.946 11.7815 27.9911C11.9226 28.024 12.0585 27.9621 12.1232 27.8093L17.0402 16.1877L27.8775 7.8541C27.9691 7.78372 27.9911 7.72106 27.9978 7.66385C28.0068 7.58736 27.9884 7.47698 27.9228 7.36593C27.8569 7.25441 27.7742 7.19387 27.7173 7.17171Z" fill="#F7F6F3"/>
</svg>
