<svg width="32" height="28" viewBox="0 0 32 28" fill="none" xmlns="http://www.w3.org/2000/svg">
<path fill-rule="evenodd" clip-rule="evenodd" d="M18.3631 0.569427C19.206 -0.0123108 20.2496 -0.148141 21.3927 0.162027C22.4353 0.444909 23.1957 1.18963 23.7206 1.90718C24.1363 2.47552 24.4526 3.09253 24.6814 3.61964C25.1396 3.27968 25.7171 2.90675 26.3565 2.62561C27.1681 2.26871 28.1974 2.00841 29.2413 2.29166C30.3847 2.6019 31.2168 3.2466 31.6564 4.17068C32.0794 5.05982 32.0705 6.06409 31.852 6.99583C31.4183 8.84469 30.0767 10.7911 28.4762 12.0833C27.0207 13.2583 25.4835 14.3635 23.8705 15.3942L22.5078 16.265C21.7392 16.7561 20.7228 16.4724 20.3076 15.6732L19.5574 14.2291C18.6697 12.5204 17.8844 10.7856 17.2044 9.03165C16.4577 7.10583 16.2565 4.74335 16.7937 2.92294C17.0643 2.00596 17.5532 1.12842 18.3631 0.569427ZM18.7119 3.48901C18.3231 4.80684 18.4497 6.71105 19.0691 8.30868C19.7222 9.99316 20.4773 11.6616 21.3322 13.3071L21.8531 14.3098L22.7936 13.7089C24.3458 12.717 25.823 11.6548 27.2198 10.5271C28.5421 9.4596 29.591 7.87695 29.9048 6.5391C30.06 5.87749 30.0141 5.374 29.8504 5.02991C29.7033 4.72077 29.3991 4.40679 28.7175 4.22186C28.2992 4.10836 27.7714 4.18824 27.1615 4.45643C26.5633 4.71948 25.9979 5.11526 25.5732 5.45807C25.1201 5.8239 24.5585 5.87624 24.1062 5.75353C23.6538 5.63078 23.1986 5.30284 22.9896 4.76389C22.7908 4.25125 22.4959 3.62053 22.1063 3.08796C21.7087 2.54439 21.2886 2.2061 20.869 2.09223C20.1871 1.90722 19.7733 2.02625 19.4992 2.21545C19.1921 2.4274 18.9044 2.83686 18.7119 3.48901ZM12.5009 13.7085C12.2268 13.5193 11.813 13.4002 11.1311 13.5852C10.7115 13.6991 10.2914 14.0374 9.89377 14.581C9.50421 15.1135 9.20927 15.7443 9.0105 16.2569C8.80154 16.7958 8.34628 17.1238 7.89387 17.2465C7.44164 17.3693 6.88001 17.3169 6.42687 16.9511C6.00223 16.6083 5.43683 16.2125 4.8386 15.9494C4.22868 15.6813 3.70087 15.6014 3.28256 15.7149C2.60103 15.8998 2.29678 16.2138 2.1497 16.5229C1.986 16.867 1.94007 17.3705 2.09526 18.0321C2.40907 19.37 3.45804 20.9526 4.7803 22.0202C6.17707 23.1479 7.65425 24.21 9.20654 25.2019L10.147 25.8029L10.6679 24.8002C11.5228 23.1546 12.2779 21.4862 12.931 19.8017C13.5504 18.2041 13.677 16.2998 13.2881 14.982C13.0957 14.3299 12.808 13.9204 12.5009 13.7085ZM15.2064 14.4159C15.7436 16.2364 15.5424 18.5988 14.7957 20.5247C14.1157 22.2786 13.3304 24.0134 12.4427 25.7222L11.6925 27.1662C11.2773 27.9654 10.2609 28.2491 9.49232 27.758L8.12963 26.8872C6.51659 25.8565 4.97938 24.7514 3.52393 23.5763C1.92344 22.2841 0.581779 20.3377 0.148105 18.4888C-0.0704476 17.5571 -0.0793359 16.5528 0.343673 15.6637C0.783309 14.7396 1.61543 14.0949 2.75882 13.7847C3.8027 13.5014 4.83198 13.7617 5.64364 14.1186C6.28303 14.3998 6.8605 14.7727 7.31869 15.1126C7.54751 14.5855 7.86381 13.9685 8.27954 13.4002C8.80441 12.6826 9.56484 11.9379 10.6074 11.655C11.7505 11.3449 12.7941 11.4807 13.637 12.0624C14.4469 12.6214 14.9358 13.499 15.2064 14.4159Z" fill="#F7F6F3"/>
</svg>
