<svg width="28" height="28" viewBox="0 0 28 28" fill="none" xmlns="http://www.w3.org/2000/svg">
<path fill-rule="evenodd" clip-rule="evenodd" d="M0.897759 0.292077C1.09764 0.0926616 1.3725 -0.012966 1.65448 0.00127433L7.79054 0.311149C8.06335 0.324926 8.31865 0.4497 8.49713 0.656483L14 7.03208L19.5029 0.656483C19.6814 0.4497 19.9366 0.324926 20.2095 0.311149L26.3455 0.00127433C26.6275 -0.012966 26.9024 0.0926616 27.1022 0.292077C27.3021 0.491493 27.4084 0.766111 27.3948 1.04813L27.0921 7.33014C27.0793 7.59569 26.9613 7.84522 26.7641 8.02358L20.0772 14.073L22.5525 16.941L23.493 15.9781C23.879 15.583 24.5121 15.5756 24.9072 15.9615C25.3022 16.3474 25.3097 16.9805 24.9238 17.3756L23.4188 18.9164L27.1113 22.6968C28.2962 23.9099 28.2962 25.8672 27.1113 27.0803C25.9135 28.3066 23.9616 28.3066 22.7639 27.0803L19.1042 23.3336L17.6321 24.8408C17.2461 25.2359 16.613 25.2433 16.2179 24.8574C15.8228 24.4715 15.8154 23.8384 16.2013 23.4433L17.1767 22.4447L14 19.5708L10.8233 22.4447L11.7987 23.4433C12.1846 23.8384 12.1772 24.4715 11.7821 24.8574C11.387 25.2433 10.7539 25.2359 10.3679 24.8408L8.8958 23.3336L5.23613 27.0803C4.03837 28.3066 2.08646 28.3066 0.888699 27.0803C-0.296233 25.8672 -0.296233 23.9099 0.888699 22.6968L4.58122 18.9164L3.07622 17.3756C2.69031 16.9805 2.69775 16.3474 3.09284 15.9615C3.48792 15.5756 4.12105 15.583 4.50695 15.9781L5.44747 16.941L7.92284 14.073L1.23585 8.02358C1.03869 7.84522 0.920677 7.59569 0.907882 7.33013L0.605206 1.04813C0.591618 0.766111 0.697882 0.491493 0.897759 0.292077ZM9.40639 15.4152L6.85004 18.3769L9.42477 21.0129L12.5094 18.2223L9.40639 15.4152ZM5.97911 20.3475L2.31943 24.0942C1.89352 24.5303 1.89352 25.2468 2.31943 25.6828C2.73252 26.1057 3.39231 26.1057 3.80539 25.6828L7.49792 21.9025L5.97911 20.3475ZM18.77 12.5586L25.1144 6.81906L25.344 2.0544L20.7375 2.28703L15.321 8.56255L18.77 12.5586ZM2.65601 2.0544L2.88558 6.81906L18.5752 21.0129L21.15 18.3769L7.26253 2.28703L2.65601 2.0544ZM22.0209 20.3475L20.5021 21.9025L24.1946 25.6828C24.6077 26.1057 25.2675 26.1057 25.6806 25.6828C26.1065 25.2468 26.1065 24.5303 25.6806 24.0942L22.0209 20.3475Z" fill="#F7F6F3"/>
</svg>
