<svg width="33" height="32" viewBox="0 0 33 32" fill="none" xmlns="http://www.w3.org/2000/svg">
<path fill-rule="evenodd" clip-rule="evenodd" d="M11.1053 2C8.89396 2 7.05263 3.85311 7.05263 6.2C7.05263 8.54689 8.89396 10.4 11.1053 10.4C13.3166 10.4 15.1579 8.54689 15.1579 6.2C15.1579 3.85311 13.3166 2 11.1053 2ZM5.05263 6.2C5.05263 2.80313 7.73558 0 11.1053 0C14.4749 0 17.1579 2.80313 17.1579 6.2C17.1579 9.59687 14.4749 12.4 11.1053 12.4C7.73558 12.4 5.05263 9.59687 5.05263 6.2ZM2.05076 26C2.53525 21.2572 6.42739 17.6 11.1053 17.6C13.0816 17.6 14.9104 18.249 16.405 19.3555C16.8488 19.6841 17.4751 19.5907 17.8037 19.1468C18.1323 18.703 18.0389 18.0767 17.595 17.7481C15.7713 16.3979 13.5287 15.6 11.1053 15.6C4.94509 15.6 0 20.7312 0 27C0 27.5523 0.447715 28 1 28H14.4737C15.026 28 15.4737 27.5523 15.4737 27C15.4737 26.4477 15.026 26 14.4737 26H2.05076Z" fill="#F7F6F3"/>
<path fill-rule="evenodd" clip-rule="evenodd" d="M22.2141 19.3929C22.2141 18.6026 22.863 18 23.6159 18H28.4371C29.19 18 29.8388 18.6026 29.8388 19.3929V21.999L30.4023 22.001C31.0192 22.0032 31.59 22.2179 32.0378 22.5773C32.6194 23.0441 33 23.7621 33 24.5724V29.4709C33 30.904 31.8727 32 30.4459 32H21.6071C20.1885 32 19 30.8698 19 29.4286V24.5414C19 23.7596 19.3544 23.0635 19.9014 22.5966C20.3622 22.2032 20.9641 21.9677 21.6164 21.97L22.2141 21.9721V19.3929ZM24.2141 21.9792L27.8388 21.992V20H24.2141V21.9792ZM21.6093 23.97C21.4485 23.9694 21.3069 24.0264 21.1999 24.1177C21.0722 24.2268 21 24.3781 21 24.5414V29.4286C21 29.7231 21.2505 30 21.6071 30H30.4459C30.7942 30 31 29.7736 31 29.4709V24.5724C31 24.4035 30.9225 24.2467 30.7859 24.137C30.6819 24.0536 30.5475 24.0015 30.3952 24.001L21.6093 23.97Z" fill="#F7F6F3"/>
</svg>
