<svg width="28" height="26" viewBox="0 0 28 26" fill="none" xmlns="http://www.w3.org/2000/svg">
<path fill-rule="evenodd" clip-rule="evenodd" d="M6.96392 1.85714C6.96392 0.816957 7.816 0 8.83442 0H19.2803C20.2987 0 21.1508 0.816959 21.1508 1.85714V4.35734L23.5342 4.36581C24.6017 4.3696 25.5848 4.74323 26.3543 5.36512C27.3546 6.17363 28 7.40822 28 8.79435V21.6639C28 24.1161 26.1016 26 23.6328 26H4.48196C2.02127 26 0 24.0318 0 21.5714V8.72669C0 7.38908 0.600973 6.19278 1.54129 5.38451C2.33301 4.70398 3.36943 4.29413 4.49809 4.29814L6.96392 4.30691V1.85714ZM8.96392 4.31402L19.1508 4.35023V2H8.96392V4.31402ZM4.01461 6.34093L10.9323 12H17.1758L23.8729 6.39034C23.76 6.37457 23.6446 6.36621 23.5271 6.3658L4.49098 6.29813C4.32785 6.29755 4.16862 6.31229 4.01461 6.34093ZM25.634 7.52409L18.5393 13.4668V17.2857C18.5393 18.3259 17.6873 19.1429 16.6688 19.1429H11.4459C10.4275 19.1429 9.5754 18.3259 9.5754 17.2857V13.4739L2.31764 7.53668C2.11465 7.88924 2 8.29522 2 8.72669V21.5714C2 22.8982 3.09659 24 4.48196 24H23.6328C25.0099 24 26 22.9987 26 21.6639V8.79435C26 8.33006 25.8671 7.89487 25.634 7.52409ZM11.5754 14V17.1429H16.5393V14H11.5754Z" fill="#F7F6F3"/>
</svg>
