<svg width="34" height="34" viewBox="0 0 34 34" fill="none" xmlns="http://www.w3.org/2000/svg">
<path d="M22.4303 11.5697C18.6198 7.75921 11.5876 7.35363 9.47065 9.47062M22.4303 11.5697C23.7379 12.8773 24.6446 14.5642 25.1859 16.3018M22.4303 11.5697L11.8892 22.1109M24.5294 24.5294C25.92 23.1389 26.2222 19.6277 25.1859 16.3018M24.5294 24.5294C23.1473 25.9115 19.7683 26.0443 16.5533 24.9344M24.5294 24.5294C26.2273 22.8315 28.8987 22.607 31.176 23.7649M24.5294 24.5294C22.8315 26.2273 22.6071 28.8986 23.7649 31.176M11.8892 22.1109C10.5895 20.8113 9.64448 19.1359 9.05502 17.4157M11.8892 22.1109C13.181 23.4027 14.844 24.3442 16.5533 24.9344M9.47065 9.47062C8.09298 10.8483 7.95661 14.21 9.05502 17.4157M9.47065 9.47062C7.77272 11.1686 5.10131 11.393 2.82395 10.2351M9.47065 9.47062C11.1686 7.77269 11.393 5.1013 10.2351 2.82394M33 25.0941C32.4454 24.5396 31.8268 24.0958 31.176 23.7649M25.0941 33C24.5396 32.4454 24.0958 31.8268 23.7649 31.176M9.05502 17.4157L17.6774 8.79325M25.1859 16.3018L16.5533 24.9344M8.90588 1C9.46041 1.55453 9.90418 2.17315 10.2351 2.82394M1 8.90589C1.55453 9.46042 2.17315 9.90419 2.82395 10.2351M2.82395 10.2351L10.2351 2.82394M31.176 23.7649L23.7649 31.176" stroke="#F7F6F3" stroke-width="2" stroke-linecap="round"/>
</svg>
